# xmcd CD database file generated by Grip 3.0.5
# 
# Track frame offsets:
#       180
#       14511
#       33161
#       57009
#       78279
#       96922
#       114064
#       131159
#       141950
#       154395
#       178624
#       224904
#       266657
# 
# Disc length: 3944 seconds
# 
# Revision: 3
# Processed by: cddbd v1.4PL0 Copyright (c) Steve Scherf et al.
# Submitted via: Grip 3.0.5
# 
DISCID=b70f660d
DTITLE=Various Artist - The Blues Night
DYEAR=1994
DGENRE=Blues
TTITLE0=Darrell Mansfield - Boom Boom
TTITLE1=Darrell Mansfield - You Know It Ain't Right
TTITLE2=Darrell Mansfield - The Mission
TTITLE3=Trace Balin - Jesus Mentioned My Name
TTITLE4=Trace Balin - A Better Way
TTITLE5=Trace Balin - When I Get To Heaven
TTITLE6=Glenn Kaiser - Great Change
TTITLE7=Glenn Kaiser - Witness Cloud
TTITLE8=Glenn Kaiser - Somebody On Your Bond
TTITLE9=Glenn Kaiser - Shaky Ground
TTITLE10=Larry Howard - Everybody Wants To Go To Heaven
TTITLE11=Larry Howard - It's Only You
TTITLE12=Darrell Mansfield, Glenn Kaiser, Trace Balin, Larry Howerd - EveryDay 
TTITLE12=Will Be Sunday - Jam Session
EXTD=
EXTT0=
EXTT1=
EXTT2=
EXTT3=
EXTT4=
EXTT5=
EXTT6=
EXTT7=
EXTT8=
EXTT9=
EXTT10=
EXTT11=
EXTT12=
PLAYORDER=
